<svg width="2659" height="397" viewBox="0 0 2659 397" fill="none" xmlns="http://www.w3.org/2000/svg">
<path d="M2149.37 1.76483V388.178H2379.63V326.775H2215.54V1.76483H2149.37Z" fill="#D6ECFA"/>
<path d="M2427.06 1.76483V388.178H2658.91V330.48H2492.17V217.203H2640.38V160.035H2492.17V59.4621H2658.91V1.76483H2427.06Z" fill="#D6ECFA"/>
<path fill-rule="evenodd" clip-rule="evenodd" d="M1542.12 388.178L1639.52 1.76483H1724.74L1822.67 388.178H1754.91L1733.74 294.486H1631.05L1609.88 388.178H1542.12ZM1698.28 136.745L1721.57 240.494H1643.22L1666.52 136.215C1670.75 119.277 1674.1 103.926 1676.57 90.1634C1679.4 76.0478 1681.34 65.8141 1682.4 59.4621C1683.45 65.8141 1685.4 76.0478 1688.22 90.1634C1691.04 103.926 1694.39 119.453 1698.28 136.745Z" fill="#D6ECFA"/>
<path fill-rule="evenodd" clip-rule="evenodd" d="M1853.51 388.178V1.76483H1972.08C2009.49 1.76483 2039.13 10.7635 2061.01 28.7608C2082.89 46.4052 2093.83 70.5781 2093.83 101.279C2093.83 118.571 2089.95 133.569 2082.18 146.273C2074.42 158.977 2063.83 168.858 2050.42 175.915C2041.9 180.525 2032.46 183.63 2022.13 185.229C2033.95 186.673 2044.8 189.921 2054.66 194.971C2069.48 202.029 2081.13 212.616 2089.59 226.731C2098.42 240.847 2102.83 257.962 2102.83 278.076C2102.83 300.308 2097.71 319.717 2087.48 336.303C2077.24 352.889 2062.77 365.769 2044.07 374.944C2025.72 383.767 2003.67 388.178 1977.9 388.178H1853.51ZM1918.09 161.094H1971.02C1988.67 161.094 2002.43 156.506 2012.31 147.331C2022.55 137.803 2027.66 124.923 2027.66 108.69C2027.66 92.4571 2022.55 79.7532 2012.31 70.5781C2002.43 61.403 1988.67 56.8155 1971.02 56.8155H1918.09V161.094ZM1973.67 333.127H1918.09V214.557H1973.67C1993.08 214.557 2008.25 220.203 2019.19 231.495C2030.49 242.435 2036.13 256.903 2036.13 274.901C2036.13 292.898 2030.49 307.19 2019.19 317.776C2008.25 328.01 1993.08 333.127 1973.67 333.127Z" fill="#D6ECFA"/>
<path d="M1387.32 388.178V44.6409H1281.46V1.2356H1540.83V44.6409H1434.96V388.178H1387.32Z" fill="#B9E6F2"/>
<path d="M1073.81 383.767C1091.11 392.589 1111.4 397 1134.69 397C1157.98 397 1178.09 392.589 1195.03 383.767C1211.97 374.592 1225.03 361.711 1234.2 345.125C1243.38 328.187 1247.96 308.425 1247.96 285.84H1200.32C1200.32 307.719 1194.5 324.658 1182.86 336.656C1171.56 348.301 1155.51 354.124 1134.69 354.124C1113.87 354.124 1097.46 348.301 1085.46 336.656C1073.81 324.658 1067.99 307.719 1067.99 285.84V110.631C1067.99 88.7516 1073.81 71.9894 1085.46 60.344C1097.46 48.6987 1113.87 42.876 1134.69 42.876C1155.51 42.876 1171.56 48.8751 1182.86 60.8733C1194.5 72.5187 1200.32 89.2809 1200.32 111.16H1247.96C1247.96 88.2222 1243.38 68.4604 1234.2 51.8747C1225.03 35.2889 1211.97 22.5849 1195.03 13.7626C1178.09 4.58753 1157.98 0 1134.69 0C1111.4 0 1091.11 4.41111 1073.81 13.2333C1056.88 22.0556 1043.64 34.7596 1034.11 51.3453C1024.94 67.9311 1020.35 87.8693 1020.35 111.16V285.84C1020.35 308.778 1024.94 328.716 1034.11 345.655C1043.64 362.24 1056.88 374.944 1073.81 383.767Z" fill="#A1DEED"/>
<path fill-rule="evenodd" clip-rule="evenodd" d="M725.184 388.178L825.758 1.76483H889.807L989.851 388.178H941.682L916.274 285.487H799.291L773.883 388.178H725.184ZM876.574 126.158L906.216 245.258H808.819L838.462 125.629C844.108 103.397 848.519 84.6937 851.695 69.5195C854.871 54.3453 856.812 44.4644 857.518 39.8768C858.223 44.4644 860.164 54.3453 863.34 69.5195C866.516 84.6937 870.927 103.573 876.574 126.158Z" fill="#6EC7E1"/>
<path d="M524.779 190.207L417.854 388.178H489.843L544.894 281.253C548.422 274.195 551.598 267.313 554.421 260.609C557.245 253.904 559.362 248.61 560.774 244.729C562.185 248.61 564.302 253.904 567.125 260.609C570.301 267.313 573.654 274.195 577.183 281.253L631.704 388.178H705.811L598.885 188.619L699.458 1.76483H627.47L578.241 98.6327C574.712 105.69 571.537 112.572 568.714 119.277C565.89 125.629 563.949 130.569 562.891 134.098C561.479 130.569 559.362 125.629 556.539 119.277C553.716 112.572 550.54 105.69 547.011 98.6327L498.312 1.76483H424.205L524.779 190.207Z" fill="#4EB2D4"/>
<path d="M103.96 388.178V59.4621V1.76483H269.96L298.191 59.4621H181.737H169.069V74.107V160.035H317.282V217.203H169.069V330.48H291.133L259.373 388.178H103.96Z" fill="#36A8CE"/>
<path d="M372.297 1.76465H333.48H296.426L381.12 158.8H225.849H0V217.027H114.689H225.849H382.884L289.369 389.943H361.711L467.577 194.089L372.297 1.76465Z" fill="#F5DC71"/>
</svg>
