<svg width="706" height="389" viewBox="0 0 706 389" fill="none" xmlns="http://www.w3.org/2000/svg">
<path d="M524.779 189.207L417.854 387.178H489.843L544.894 280.253C548.422 273.195 551.598 266.313 554.421 259.609C557.245 252.904 559.362 247.61 560.774 243.729C562.185 247.61 564.302 252.904 567.125 259.609C570.301 266.313 573.654 273.195 577.183 280.253L631.704 387.178H705.811L598.885 187.619L699.458 0.764832H627.47L578.241 97.6327C574.712 104.69 571.537 111.572 568.714 118.277C565.89 124.629 563.949 129.569 562.891 133.098C561.479 129.569 559.362 124.629 556.539 118.277C553.716 111.572 550.54 104.69 547.011 97.6327L498.312 0.764832H424.205L524.779 189.207Z" fill="#4EB2D4"/>
<path d="M103.96 387.178V58.4621V0.764832H269.96L298.191 58.4621H181.737H169.069V73.107V159.035H317.282V216.203H169.069V329.48H291.133L259.373 387.178H103.96Z" fill="#36A8CE"/>
<path d="M372.297 0.764648H333.48H296.426L381.12 157.8H225.849H0V216.027H114.689H225.849H382.884L289.369 388.943H361.711L467.577 193.089L372.297 0.764648Z" fill="#F5DC71"/>
</svg>
